<?xml version="1.0" standalone="no"?>
<!DOCTYPE svg PUBLIC "-//W3C//DTD SVG 20010904//EN"
 "http://www.w3.org/TR/2001/REC-SVG-20010904/DTD/svg10.dtd">
<svg version="1.0" xmlns="http://www.w3.org/2000/svg"
 width="32.000000pt" height="32.000000pt" viewBox="0 0 32.000000 32.000000"
 preserveAspectRatio="xMidYMid meet">
<metadata>
Created by potrace 1.14, written by Peter Selinger 2001-2017
</metadata>
<g transform="translate(0.000000,32.000000) scale(0.100000,-0.100000)"
fill="#000000" stroke="none">
<path d="M52 282 c-17 -16 -34 -41 -38 -56 -25 -99 78 -186 171 -144 24 11 29
8 74 -36 65 -64 82 -43 18 22 -43 45 -45 48 -32 72 29 51 11 121 -39 154 -15
9 -46 16 -75 16 -40 0 -54 -5 -79 -28z m131 7 c38 -19 57 -51 57 -97 0 -63
-40 -102 -105 -102 -65 0 -105 39 -105 102 1 82 81 134 153 97z"/>
</g>
</svg>
